<svg width="200" height="200" viewBox="0 0 200 200" fill="none" xmlns="http://www.w3.org/2000/svg">
<path d="M78.6917 122.996C78.6917 131.83 71.4939 139.027 62.6606 139.027C53.8273 139.027 46.6295 131.83 46.6295 122.996C46.6295 114.163 53.8273 106.965 62.6606 106.965C71.4939 106.965 78.6917 114.163 78.6917 122.996ZM88.0863 122.996C88.0863 109.071 76.5867 97.5709 62.6606 97.5709C48.7345 97.5709 37.2349 109.071 37.2349 122.996C37.2349 136.922 48.7345 148.422 62.6606 148.422C76.5867 148.422 88.0863 136.922 88.0863 122.996ZM153.333 122.996C153.333 131.83 146.136 139.027 137.302 139.027C128.469 139.027 121.271 131.83 121.271 122.996C121.271 114.163 128.469 106.965 137.302 106.965C146.136 106.965 153.333 114.163 153.333 122.996ZM162.728 122.996C162.728 109.071 151.228 97.5709 137.302 97.5709C123.376 97.5709 111.876 109.071 111.876 122.996C111.876 136.922 123.376 148.422 137.302 148.422C151.228 148.422 162.728 136.922 162.728 122.996ZM105.457 77.0044C105.457 71.7437 101.118 67.4048 95.857 67.4048H76.7324C71.4716 67.4048 67.1328 71.7437 67.1328 77.0044V85.7337H76.7324V77.0044H95.857V85.7337H105.457V77.0044ZM105.457 94.463V113.588H76.7324V94.463H105.457Z" fill="white"/>
<path d="M105.457 77.0044C105.457 71.7437 101.118 67.4048 95.857 67.4048H76.7324C71.4716 67.4048 67.1328 71.7437 67.1328 77.0044V85.7337H76.7324V77.0044H95.857V85.7337H105.457V77.0044ZM105.457 94.463V113.588H76.7324V94.463H105.457Z" fill="#00BFFF"/>
</svg>